<svg id="Twitter_Logo_WhiteOnImage" xmlns="http://www.w3.org/2000/svg" width="80.184" height="80.184" viewBox="0 0 80.184 80.184">
  <path id="パス_5" data-name="パス 5" d="M40.092,0A40.092,40.092,0,1,1,0,40.092,40.092,40.092,0,0,1,40.092,0Z" fill="#1da1f2"/>
  <g id="Logo__x2014__FIXED" transform="translate(20.046 24.055)">
    <g id="グループ_4" data-name="グループ 4">
      <path id="パス_3" data-name="パス 3" d="M87.694,131c15.129,0,23.407-12.546,23.407-23.407,0-.353,0-.706-.016-1.059a16.761,16.761,0,0,0,4.107-4.267,16.674,16.674,0,0,1-4.733,1.3,8.277,8.277,0,0,0,3.626-4.556,16.365,16.365,0,0,1-5.23,1.989,8.229,8.229,0,0,0-14.23,5.631,9.092,9.092,0,0,0,.209,1.877,23.361,23.361,0,0,1-16.958-8.6,8.26,8.26,0,0,0,2.551,10.99,8.321,8.321,0,0,1-3.722-1.027v.112a8.244,8.244,0,0,0,6.594,8.07,8.275,8.275,0,0,1-3.706.144,8.226,8.226,0,0,0,7.685,5.711,16.5,16.5,0,0,1-10.22,3.53,15.831,15.831,0,0,1-1.957-.112A23.4,23.4,0,0,0,87.694,131" transform="translate(-75.1 -98.4)" fill="#fff"/>
    </g>
  </g>
</svg>
